<mxfile host="app.diagrams.net" modified="2023-03-21T09:35:00.147Z" agent="5.0 (Windows NT 10.0; Win64; x64) AppleWebKit/537.36 (KHTML, like Gecko) Chrome/108.0.0.0 YaBrowser/23.1.5.708 Yowser/2.5 Safari/537.36" etag="E1sNZFEcz_UpJY_OoVK-" version="21.0.8" type="github">
  <diagram name="Страница 1" id="aT30Qz6m-3KQ5v2p3956">
    <mxGraphModel dx="784" dy="411" grid="1" gridSize="10" guides="1" tooltips="1" connect="1" arrows="1" fold="1" page="1" pageScale="1" pageWidth="3300" pageHeight="4681" math="0" shadow="0">
      <root>
        <mxCell id="0" />
        <mxCell id="1" parent="0" />
        <mxCell id="y5jFNkKF4nAmQqFBr7Bh-14" value="" style="group" parent="1" vertex="1" connectable="0">
          <mxGeometry x="50" y="60" width="500" height="340" as="geometry" />
        </mxCell>
        <mxCell id="y5jFNkKF4nAmQqFBr7Bh-3" value="получаем массив string[]array" style="rounded=0;whiteSpace=wrap;html=1;" parent="y5jFNkKF4nAmQqFBr7Bh-14" vertex="1">
          <mxGeometry x="240" width="120" height="60" as="geometry" />
        </mxCell>
        <mxCell id="y5jFNkKF4nAmQqFBr7Bh-5" value="length array &amp;gt;= 3" style="rhombus;whiteSpace=wrap;html=1;" parent="y5jFNkKF4nAmQqFBr7Bh-14" vertex="1">
          <mxGeometry x="240" y="100" width="120" height="120" as="geometry" />
        </mxCell>
        <mxCell id="y5jFNkKF4nAmQqFBr7Bh-13" value="" style="edgeStyle=orthogonalEdgeStyle;rounded=0;orthogonalLoop=1;jettySize=auto;html=1;" parent="y5jFNkKF4nAmQqFBr7Bh-14" source="y5jFNkKF4nAmQqFBr7Bh-3" target="y5jFNkKF4nAmQqFBr7Bh-5" edge="1">
          <mxGeometry relative="1" as="geometry" />
        </mxCell>
        <mxCell id="y5jFNkKF4nAmQqFBr7Bh-10" style="edgeStyle=orthogonalEdgeStyle;rounded=0;orthogonalLoop=1;jettySize=auto;html=1;exitX=0.5;exitY=0;exitDx=0;exitDy=0;entryX=0;entryY=0.5;entryDx=0;entryDy=0;" parent="y5jFNkKF4nAmQqFBr7Bh-14" source="y5jFNkKF4nAmQqFBr7Bh-6" target="y5jFNkKF4nAmQqFBr7Bh-5" edge="1">
          <mxGeometry relative="1" as="geometry" />
        </mxCell>
        <mxCell id="y5jFNkKF4nAmQqFBr7Bh-6" value="Заполнение нового массива значениями из изначального массива" style="shape=hexagon;perimeter=hexagonPerimeter2;whiteSpace=wrap;html=1;fixedSize=1;" parent="y5jFNkKF4nAmQqFBr7Bh-14" vertex="1">
          <mxGeometry y="255" width="200" height="80" as="geometry" />
        </mxCell>
        <mxCell id="y5jFNkKF4nAmQqFBr7Bh-11" value="" style="edgeStyle=orthogonalEdgeStyle;rounded=0;orthogonalLoop=1;jettySize=auto;html=1;" parent="y5jFNkKF4nAmQqFBr7Bh-14" source="y5jFNkKF4nAmQqFBr7Bh-7" target="y5jFNkKF4nAmQqFBr7Bh-6" edge="1">
          <mxGeometry relative="1" as="geometry" />
        </mxCell>
        <mxCell id="y5jFNkKF4nAmQqFBr7Bh-7" value="Создание нового массива string [] newArray размером от 1-го до 3-х символов случайно" style="rounded=0;whiteSpace=wrap;html=1;" parent="y5jFNkKF4nAmQqFBr7Bh-14" vertex="1">
          <mxGeometry x="235" y="250" width="130" height="90" as="geometry" />
        </mxCell>
        <mxCell id="y5jFNkKF4nAmQqFBr7Bh-12" value="" style="edgeStyle=orthogonalEdgeStyle;rounded=0;orthogonalLoop=1;jettySize=auto;html=1;" parent="y5jFNkKF4nAmQqFBr7Bh-14" source="y5jFNkKF4nAmQqFBr7Bh-5" target="y5jFNkKF4nAmQqFBr7Bh-7" edge="1">
          <mxGeometry relative="1" as="geometry" />
        </mxCell>
        <mxCell id="y5jFNkKF4nAmQqFBr7Bh-8" value="Вывод массива" style="shape=document;whiteSpace=wrap;html=1;boundedLbl=1;" parent="y5jFNkKF4nAmQqFBr7Bh-14" vertex="1">
          <mxGeometry x="380" y="120" width="120" height="80" as="geometry" />
        </mxCell>
        <mxCell id="y5jFNkKF4nAmQqFBr7Bh-9" value="" style="edgeStyle=orthogonalEdgeStyle;rounded=0;orthogonalLoop=1;jettySize=auto;html=1;" parent="y5jFNkKF4nAmQqFBr7Bh-14" source="y5jFNkKF4nAmQqFBr7Bh-5" target="y5jFNkKF4nAmQqFBr7Bh-8" edge="1">
          <mxGeometry relative="1" as="geometry" />
        </mxCell>
        <mxCell id="um2cetJnBRwfsC-V75-w-1" value="yes" style="text;html=1;align=center;verticalAlign=middle;resizable=0;points=[];autosize=1;strokeColor=none;fillColor=none;fontSize=10;" vertex="1" parent="y5jFNkKF4nAmQqFBr7Bh-14">
          <mxGeometry x="340" y="130" width="40" height="30" as="geometry" />
        </mxCell>
        <mxCell id="um2cetJnBRwfsC-V75-w-2" value="no" style="text;html=1;align=center;verticalAlign=middle;resizable=0;points=[];autosize=1;strokeColor=none;fillColor=none;" vertex="1" parent="y5jFNkKF4nAmQqFBr7Bh-14">
          <mxGeometry x="300" y="220" width="40" height="30" as="geometry" />
        </mxCell>
      </root>
    </mxGraphModel>
  </diagram>
</mxfile>
